# xmcd
#
# Track frame offsets:
#	182
#	15247
#	29585
#
# Disc length: 616 seconds
#
# Revision: 0
# Processed by: cddbd v1.5.2PL0 Copyright (c) Steve Scherf et al.
# Submitted via: audiograbber 1.83.01
#
DISCID=17026603
DTITLE=Carlene Carter - Love like this
DYEAR=1995
DGENRE=Country
TTITLE0=Love like this
TTITLE1=Hurricane
TTITLE2=One tender night
EXTD=
EXTT0=
EXTT1=
EXTT2=
PLAYORDER=
